# xmcd
#
# Track frame offsets:
#	182
#	11707
#	26510
#	43632
#	57267
#	73055
#	85422
#	99177
#	112887
#	130142
#	147275
#	160055
#	175895
#	191042
#	210432
#	223142
#	242610
#
# Disc length: 3540 seconds
#
# Revision: 0
# Processed by: cddbd v1.5.2PL0 Copyright (c) Steve Scherf et al.
# Submitted via: audiograbber 1.83.01
#
DISCID=ea0dd211
DTITLE=Azra - Collector´s Edition (Remasterded)
DYEAR=1900
DGENRE=HR Rock
TTITLE0=Jablan
TTITLE1=Uradi nesto
TTITLE2=Tesko vrijeme
TTITLE3=Tople usne zene
TTITLE4=Vrijeme odluke
TTITLE5=Gracija
TTITLE6=Krvava meri
TTITLE7=Marina
TTITLE8=Ne mogu pomoci nikome od nas
TTITLE9=Iggy Pop
TTITLE10=Zena drugog sistema
TTITLE11=Oprati pasnju na posljednju stvar
TTITLE12=Pametni knjiski ljudi
TTITLE13=Odlazak u noc
TTITLE14=Nemir i strast
TTITLE15=Ako znas bilo sto
TTITLE16=Flash
EXTD=Made in Holland (Cru records)
EXTT0=
EXTT1=
EXTT2=
EXTT3=
EXTT4=
EXTT5=
EXTT6=
EXTT7=
EXTT8=
EXTT9=
EXTT10=
EXTT11=
EXTT12=
EXTT13=
EXTT14=
EXTT15=
EXTT16=
PLAYORDER=
